<svg width="20" height="20" viewBox="0 0 20 20" fill="none" xmlns="http://www.w3.org/2000/svg">
<path d="M14.6512 11.6667C15.1649 11.6667 15.5814 11.2403 15.5814 10.7143C15.5814 10.1883 15.1649 9.7619 14.6512 9.7619C14.1374 9.7619 13.7209 10.1883 13.7209 10.7143C13.7209 11.2403 14.1374 11.6667 14.6512 11.6667Z" fill="#333333"/>
<path d="M14.6512 11.6667C15.1649 11.6667 15.5814 11.2403 15.5814 10.7143C15.5814 10.1883 15.1649 9.7619 14.6512 9.7619C14.1374 9.7619 13.7209 10.1883 13.7209 10.7143C13.7209 11.2403 14.1374 11.6667 14.6512 11.6667Z" fill="#555555"/>
<path d="M14.6512 15.4762C15.1649 15.4762 15.5814 15.0498 15.5814 14.5238C15.5814 13.9978 15.1649 13.5714 14.6512 13.5714C14.1374 13.5714 13.7209 13.9978 13.7209 14.5238C13.7209 15.0498 14.1374 15.4762 14.6512 15.4762Z" fill="#333333"/>
<path d="M14.6512 15.4762C15.1649 15.4762 15.5814 15.0498 15.5814 14.5238C15.5814 13.9978 15.1649 13.5714 14.6512 13.5714C14.1374 13.5714 13.7209 13.9978 13.7209 14.5238C13.7209 15.0498 14.1374 15.4762 14.6512 15.4762Z" fill="#555555"/>
<path d="M10.9302 10.7143C10.9302 11.2403 10.5138 11.6667 10 11.6667C9.48625 11.6667 9.06977 11.2403 9.06977 10.7143C9.06977 10.1883 9.48625 9.7619 10 9.7619C10.5138 9.7619 10.9302 10.1883 10.9302 10.7143Z" fill="#333333"/>
<path d="M10.9302 10.7143C10.9302 11.2403 10.5138 11.6667 10 11.6667C9.48625 11.6667 9.06977 11.2403 9.06977 10.7143C9.06977 10.1883 9.48625 9.7619 10 9.7619C10.5138 9.7619 10.9302 10.1883 10.9302 10.7143Z" fill="#555555"/>
<path d="M10.9302 14.5238C10.9302 15.0498 10.5138 15.4762 10 15.4762C9.48625 15.4762 9.06977 15.0498 9.06977 14.5238C9.06977 13.9978 9.48625 13.5714 10 13.5714C10.5138 13.5714 10.9302 13.9978 10.9302 14.5238Z" fill="#333333"/>
<path d="M10.9302 14.5238C10.9302 15.0498 10.5138 15.4762 10 15.4762C9.48625 15.4762 9.06977 15.0498 9.06977 14.5238C9.06977 13.9978 9.48625 13.5714 10 13.5714C10.5138 13.5714 10.9302 13.9978 10.9302 14.5238Z" fill="#555555"/>
<path d="M5.34884 11.6667C5.86259 11.6667 6.27907 11.2403 6.27907 10.7143C6.27907 10.1883 5.86259 9.7619 5.34884 9.7619C4.83508 9.7619 4.41861 10.1883 4.41861 10.7143C4.41861 11.2403 4.83508 11.6667 5.34884 11.6667Z" fill="#333333"/>
<path d="M5.34884 11.6667C5.86259 11.6667 6.27907 11.2403 6.27907 10.7143C6.27907 10.1883 5.86259 9.7619 5.34884 9.7619C4.83508 9.7619 4.41861 10.1883 4.41861 10.7143C4.41861 11.2403 4.83508 11.6667 5.34884 11.6667Z" fill="#555555"/>
<path d="M5.34884 15.4762C5.86259 15.4762 6.27907 15.0498 6.27907 14.5238C6.27907 13.9978 5.86259 13.5714 5.34884 13.5714C4.83508 13.5714 4.41861 13.9978 4.41861 14.5238C4.41861 15.0498 4.83508 15.4762 5.34884 15.4762Z" fill="#333333"/>
<path d="M5.34884 15.4762C5.86259 15.4762 6.27907 15.0498 6.27907 14.5238C6.27907 13.9978 5.86259 13.5714 5.34884 13.5714C4.83508 13.5714 4.41861 13.9978 4.41861 14.5238C4.41861 15.0498 4.83508 15.4762 5.34884 15.4762Z" fill="#555555"/>
<path fill-rule="evenodd" clip-rule="evenodd" d="M5.34884 0C5.73415 0 6.04651 0.319797 6.04651 0.714286V1.44069C6.66232 1.42856 7.34077 1.42856 8.08694 1.42857H11.9129C12.6591 1.42856 13.3377 1.42856 13.9535 1.44069V0.714286C13.9535 0.319797 14.2658 0 14.6512 0C15.0365 0 15.3488 0.319797 15.3488 0.714286V1.50199C15.5906 1.52086 15.8196 1.54459 16.0363 1.57441C17.1269 1.72454 18.0097 2.04084 18.7058 2.75356C19.402 3.46629 19.7109 4.37005 19.8575 5.48664C20 6.5716 20 7.95791 20 9.70814V11.7204C20 13.4706 20 14.857 19.8575 15.9419C19.7109 17.0585 19.402 17.9623 18.7058 18.675C18.0097 19.3877 17.1269 19.704 16.0363 19.8542C14.9766 20 13.6225 20 11.913 20H8.08706C6.37753 20 5.02343 20 3.9637 19.8542C2.87307 19.704 1.99033 19.3877 1.29418 18.675C0.598028 17.9623 0.289082 17.0585 0.142451 15.9419C-2.58795e-05 14.857 -1.4342e-05 13.4706 2.95773e-07 11.7204V9.70817C-1.4342e-05 7.95793 -2.58795e-05 6.57161 0.142451 5.48664C0.289082 4.37005 0.598028 3.46629 1.29418 2.75356C1.99033 2.04084 2.87308 1.72454 3.9637 1.57441C4.18038 1.54459 4.40936 1.52086 4.65116 1.50199V0.714286C4.65116 0.319797 4.96352 0 5.34884 0ZM4.14963 2.99025C3.21373 3.11907 2.67452 3.36066 2.28084 3.76372C1.88716 4.16677 1.65119 4.71882 1.52536 5.677C1.50405 5.83927 1.48623 6.0101 1.47133 6.19048H18.5287C18.5138 6.0101 18.496 5.83927 18.4746 5.677C18.3488 4.71882 18.1128 4.16677 17.7192 3.76372C17.3255 3.36066 16.7863 3.11907 15.8504 2.99025C14.8944 2.85866 13.6343 2.85714 11.8605 2.85714H8.13953C6.36575 2.85714 5.10559 2.85866 4.14963 2.99025ZM1.39535 9.7619C1.39535 8.94856 1.39565 8.24069 1.40752 7.61905H18.5925C18.6044 8.24069 18.6046 8.94856 18.6046 9.7619V11.6667C18.6046 13.4827 18.6032 14.7728 18.4746 15.7516C18.3488 16.7098 18.1128 17.2618 17.7192 17.6649C17.3255 18.0679 16.7863 18.3095 15.8504 18.4383C14.8944 18.5699 13.6343 18.5714 11.8605 18.5714H8.13953C6.36575 18.5714 5.10559 18.5699 4.14963 18.4383C3.21373 18.3095 2.67452 18.0679 2.28084 17.6649C1.88716 17.2618 1.65119 16.7098 1.52536 15.7516C1.39683 14.7728 1.39535 13.4827 1.39535 11.6667V9.7619Z" fill="#333333"/>
<path fill-rule="evenodd" clip-rule="evenodd" d="M5.34884 0C5.73415 0 6.04651 0.319797 6.04651 0.714286V1.44069C6.66232 1.42856 7.34077 1.42856 8.08694 1.42857H11.9129C12.6591 1.42856 13.3377 1.42856 13.9535 1.44069V0.714286C13.9535 0.319797 14.2658 0 14.6512 0C15.0365 0 15.3488 0.319797 15.3488 0.714286V1.50199C15.5906 1.52086 15.8196 1.54459 16.0363 1.57441C17.1269 1.72454 18.0097 2.04084 18.7058 2.75356C19.402 3.46629 19.7109 4.37005 19.8575 5.48664C20 6.5716 20 7.95791 20 9.70814V11.7204C20 13.4706 20 14.857 19.8575 15.9419C19.7109 17.0585 19.402 17.9623 18.7058 18.675C18.0097 19.3877 17.1269 19.704 16.0363 19.8542C14.9766 20 13.6225 20 11.913 20H8.08706C6.37753 20 5.02343 20 3.9637 19.8542C2.87307 19.704 1.99033 19.3877 1.29418 18.675C0.598028 17.9623 0.289082 17.0585 0.142451 15.9419C-2.58795e-05 14.857 -1.4342e-05 13.4706 2.95773e-07 11.7204V9.70817C-1.4342e-05 7.95793 -2.58795e-05 6.57161 0.142451 5.48664C0.289082 4.37005 0.598028 3.46629 1.29418 2.75356C1.99033 2.04084 2.87308 1.72454 3.9637 1.57441C4.18038 1.54459 4.40936 1.52086 4.65116 1.50199V0.714286C4.65116 0.319797 4.96352 0 5.34884 0ZM4.14963 2.99025C3.21373 3.11907 2.67452 3.36066 2.28084 3.76372C1.88716 4.16677 1.65119 4.71882 1.52536 5.677C1.50405 5.83927 1.48623 6.0101 1.47133 6.19048H18.5287C18.5138 6.0101 18.496 5.83927 18.4746 5.677C18.3488 4.71882 18.1128 4.16677 17.7192 3.76372C17.3255 3.36066 16.7863 3.11907 15.8504 2.99025C14.8944 2.85866 13.6343 2.85714 11.8605 2.85714H8.13953C6.36575 2.85714 5.10559 2.85866 4.14963 2.99025ZM1.39535 9.7619C1.39535 8.94856 1.39565 8.24069 1.40752 7.61905H18.5925C18.6044 8.24069 18.6046 8.94856 18.6046 9.7619V11.6667C18.6046 13.4827 18.6032 14.7728 18.4746 15.7516C18.3488 16.7098 18.1128 17.2618 17.7192 17.6649C17.3255 18.0679 16.7863 18.3095 15.8504 18.4383C14.8944 18.5699 13.6343 18.5714 11.8605 18.5714H8.13953C6.36575 18.5714 5.10559 18.5699 4.14963 18.4383C3.21373 18.3095 2.67452 18.0679 2.28084 17.6649C1.88716 17.2618 1.65119 16.7098 1.52536 15.7516C1.39683 14.7728 1.39535 13.4827 1.39535 11.6667V9.7619Z" fill="#555555"/>
</svg>
